<svg width="23.520020" height="24.000000" viewBox="0 0 23.52 24" fill="none" xmlns="http://www.w3.org/2000/svg" xmlns:xlink="http://www.w3.org/1999/xlink">
	<desc>
			Created with Pixso.
	</desc>
	<defs/>
	<path id="Shape" d="M23.52 12.27C23.52 11.42 23.44 10.6 23.3 9.81L12 9.81L12 14.46L18.45 14.46C18.18 15.96 17.33 17.23 16.06 18.08L16.06 21.09L19.94 21.09C22.21 19 23.52 15.92 23.52 12.27Z" fill="#4285F4" fill-opacity="1.000000" fill-rule="evenodd"/>
	<path id="Shape" d="M12 24C15.24 24 17.95 22.92 19.94 21.09L16.06 18.08C14.98 18.8 13.61 19.22 12 19.22C8.87 19.22 6.22 17.11 5.28 14.28L1.27 14.28L1.27 17.38C3.25 21.31 7.3 24 12 24Z" fill="#34A853" fill-opacity="1.000000" fill-rule="evenodd"/>
	<path id="Shape" d="M5.28 14.28C5.04 13.56 4.9 12.79 4.9 12C4.9 11.2 5.04 10.44 5.28 9.72L5.28 6.61L1.27 6.61C0.46 8.23 0 10.06 0 12C0 13.93 0.46 15.76 1.27 17.38L5.28 14.28Z" fill="#FBBC05" fill-opacity="1.000000" fill-rule="evenodd"/>
	<path id="Shape" d="M12 4.77C13.76 4.77 15.34 5.37 16.58 6.56L20.02 3.12C17.95 1.18 15.23 0 12 0C7.3 0 3.25 2.68 1.27 6.61L5.28 9.71C6.22 6.88 8.87 4.77 12 4.77Z" fill="#EA4335" fill-opacity="1.000000" fill-rule="evenodd"/>
</svg>
